<?xml version="1.0" standalone="no"?>
<!DOCTYPE svg PUBLIC "-//W3C//DTD SVG 20010904//EN"
 "http://www.w3.org/TR/2001/REC-SVG-20010904/DTD/svg10.dtd">
<svg version="1.0" xmlns="http://www.w3.org/2000/svg"
 width="128.000000pt" height="128.000000pt" viewBox="0 0 128.000000 128.000000"
 preserveAspectRatio="xMidYMid meet">
<metadata>
Created by potrace 1.11, written by Peter Selinger 2001-2013
</metadata>
<g transform="translate(0.000000,128.000000) scale(0.100000,-0.100000)"
fill="#000000" stroke="none">
<path d="M120 1050 l0 -60 150 0 150 0 0 -405 0 -406 62 3 63 3 0 400 0 400
150 5 150 5 0 55 0 55 -362 3 -363 2 0 -60z"/>
<path d="M740 490 l0 -291 57 3 58 3 -1 123 0 122 113 0 c83 0 113 -3 114 -12
0 -7 1 -64 1 -125 l1 -113 57 0 57 0 -1 288 -1 287 -57 3 -56 3 0 -98 c0 -54
0 -106 -1 -115 -1 -16 -13 -18 -114 -18 l-113 0 1 115 1 115 -58 0 -58 0 0
-290z"/>
</g>
</svg>
