<svg width="512" height="512" xmlns="http://www.w3.org/2000/svg">

 <g>
  <title>background</title>
  <rect fill="none" id="canvas_background" height="402" width="582" y="-1" x="-1"/>
 </g>
 <g>
  <title>Layer 1</title>
  <path fill="#ffffff" id="svg_2" d="m437.032,74.982c-46.344,-46.341 -110.39,-74.982 -180.962,-74.982c-70.712,0 -134.766,28.641 -181.103,74.982c-46.202,46.357 -74.967,110.425 -74.967,181.015c0,70.737 28.765,134.663 74.967,181.02c46.337,46.346 110.391,74.983 181.103,74.983c70.571,0 134.618,-28.637 180.962,-74.983c46.198,-46.357 74.968,-110.283 74.968,-181.02c0,-70.59 -28.77,-134.658 -74.968,-181.015z"/>
  <path id="svg_3" fill-rule="evenodd" fill="#1f1f1f" d="m276.897,168.12c-5.665,-0.717 -12.893,-3.125 -14.167,4.388c-1.416,7.795 6.657,7.234 11.901,8.365c35.714,7.8 47.9,20.548 53.852,55.146c0.277,1.419 0.427,3.257 0.427,4.816c0.424,4.109 1.415,7.79 7.648,6.664c3.12,-0.429 4.253,-2.125 4.395,-4.533c0.426,-2.131 0,-4.968 0.285,-6.947c0.141,-33.321 -28.911,-63.511 -64.341,-67.899l0,0zm3.264,27.354c-3.685,0 -7.372,0.424 -8.787,4.397c-2.128,5.67 2.269,7.225 6.657,7.932c14.599,2.131 22.253,10.638 23.811,24.809c0.141,1.984 0.853,3.545 1.7,4.827c1.277,1.403 2.834,1.979 4.818,1.838c1.274,0 2.266,-0.435 3.113,-0.854c2.416,-1.843 2.837,-5.245 2.555,-8.79c0.283,-16.009 -18.14,-34.588 -33.867,-34.159l0,0zm73.97,112.262c-7.225,-5.675 -15.164,-10.774 -22.531,-16.02c-15.161,-10.209 -29.049,-11.047 -40.244,5.528c-6.377,9.36 -15.309,9.784 -24.517,5.669c-25.65,-11.197 -45.348,-28.631 -56.966,-54.288c-1.704,-3.968 -2.834,-7.79 -2.979,-11.334c-0.426,-6.806 2.408,-12.753 10.064,-18.004c6.375,-4.109 12.608,-9.072 12.185,-18.286c-0.565,-12.046 -30.329,-52.162 -42.226,-56.56c-4.823,-1.702 -9.641,-1.414 -14.6,0c-27.634,9.208 -38.97,31.332 -28.06,57.549c6.235,14.748 12.897,28.495 20.832,41.39c33.87,56.701 83.749,98.095 148.089,125.166c4.392,1.843 9.353,2.696 12.043,3.262c17.999,0.282 38.968,-16.868 45.064,-33.6c5.953,-16.296 -6.514,-22.53 -16.154,-30.472l0,0zm-88.564,-155.206c57.669,8.779 84.17,35.709 91.536,92.557c0,0.57 0,0.995 0,1.409c0.43,5.245 -0.56,12.056 6.38,12.056c6.098,0.142 6.38,-4.393 6.38,-8.79c-0.282,-1.555 -0.282,-2.832 -0.282,-4.104c0.706,-53.732 -47.049,-103.618 -102.315,-105.325c-4.394,0.707 -12.898,-2.837 -13.603,6.377c-0.146,6.103 7.081,5.244 11.904,5.82l0,0z" clip-rule="evenodd"/>
 </g>
</svg>